<svg xmlns="http://www.w3.org/2000/svg" width="24" height="24" viewBox="0 0 24 24">
  <path fill="#677078" d="M14.8,16 C15.9045695,16 16.8,16.8954305 16.8,18 C16.8,19.1045695 15.9045695,20 14.8,20 C13.6954305,20 12.8,19.1045695 12.8,18 C12.8,16.8954305 13.6954305,16 14.8,16 Z M7.2,11.2 C8.9673112,11.2 10.4,12.6326888 10.4,14.4 C10.4,16.1673112 8.9673112,17.6 7.2,17.6 C5.4326888,17.6 4,16.1673112 4,14.4 C4,12.6326888 5.4326888,11.2 7.2,11.2 Z M15.2,4 C17.8509668,4 20,6.1490332 20,8.8 C20,11.4509668 17.8509668,13.6 15.2,13.6 C12.5490332,13.6 10.4,11.4509668 10.4,8.8 C10.4,6.1490332 12.5490332,4 15.2,4 Z"/>
</svg>
