<svg xmlns="http://www.w3.org/2000/svg" xmlns:xlink="http://www.w3.org/1999/xlink" width="24" height="24"><defs><path id="a" d="M14.333 9.875h1.334a.268.268 0 00.13-.034.297.297 0 00.104-.096.387.387 0 00.073-.137.561.561 0 000-.341.387.387 0 00-.073-.137.297.297 0 00-.104-.096.268.268 0 00-.13-.034h-1.334a.268.268 0 00-.13.034.297.297 0 00-.104.096.387.387 0 00-.073.137.561.561 0 000 .341c.017.055.042.1.073.137a.297.297 0 00.104.096.268.268 0 00.13.034zm0-2h1.334a.268.268 0 00.13-.034.297.297 0 00.104-.096.387.387 0 00.073-.137.561.561 0 000-.341.387.387 0 00-.073-.137.297.297 0 00-.104-.096.268.268 0 00-.13-.034h-1.334a.268.268 0 00-.13.034.297.297 0 00-.104.096.387.387 0 00-.073.137.561.561 0 000 .341c.017.055.042.1.073.137a.297.297 0 00.104.096.268.268 0 00.13.034zm0 4h1.334a.268.268 0 00.13-.034.297.297 0 00.104-.096.387.387 0 00.073-.137.561.561 0 000-.341.387.387 0 00-.073-.137.297.297 0 00-.104-.096.268.268 0 00-.13-.034h-1.334a.268.268 0 00-.13.034.297.297 0 00-.104.096.387.387 0 00-.073.137.561.561 0 000 .341c.017.055.042.1.073.137a.297.297 0 00.104.096.268.268 0 00.13.034zm-5.933 4h7.2a.373.373 0 00.281-.13.372.372 0 00.088-.137.476.476 0 000-.341.372.372 0 00-.088-.137.373.373 0 00-.281-.13H8.4a.373.373 0 00-.281.13.372.372 0 00-.088.137.476.476 0 000 .341c.021.055.05.1.088.137a.373.373 0 00.281.13zm0-2h7.2a.373.373 0 00.281-.13.372.372 0 00.088-.137.476.476 0 000-.341.372.372 0 00-.088-.137.373.373 0 00-.281-.13H8.4a.373.373 0 00-.281.13.372.372 0 00-.088.137.476.476 0 000 .341c.021.055.05.1.088.137a.373.373 0 00.281.13zM17.571 5H7.714a2.6 2.6 0 00-.388.027c-.12.019-.234.048-.342.09a1.27 1.27 0 00-.294.143 1.307 1.307 0 00-.442.451c-.054.091-.1.191-.14.3-.037.11-.063.226-.081.35A2.713 2.713 0 006 6.75v11.813c0 .059.011.116.033.17a.37.37 0 00.094.137c.036.041.08.073.134.096.054.023.11.034.168.034h9.428a.423.423 0 00.168-.034.363.363 0 00.133-.096.37.37 0 00.094-.137.448.448 0 00.034-.17v-.438h1.285a.423.423 0 00.168-.034.363.363 0 00.134-.096.37.37 0 00.094-.137.448.448 0 00.033-.17V5.438a.448.448 0 00-.033-.171.37.37 0 00-.094-.137.363.363 0 00-.134-.096A.423.423 0 0017.57 5zM17 17H7V6.846c0-.075.003-.145.01-.211a.835.835 0 01.036-.179.878.878 0 01.058-.149.376.376 0 01.085-.109.405.405 0 01.11-.089.856.856 0 01.144-.063A1.555 1.555 0 017.833 6H17v11zM12.583 7H8.417c-.057 0-.11.01-.16.033a.43.43 0 00-.133.09.353.353 0 00-.091.13.42.42 0 00-.033.164v4.166c0 .057.01.11.033.16a.43.43 0 00.09.133c.035.04.079.07.13.091a.42.42 0 00.164.033h4.166c.057 0 .11-.01.16-.033a.43.43 0 00.133-.09.353.353 0 00.091-.13.42.42 0 00.033-.164V7.417c0-.057-.01-.11-.033-.16a.43.43 0 00-.09-.133.353.353 0 00-.13-.091.42.42 0 00-.164-.033z"/></defs><use fill="#677078" xlink:href="#a"/></svg>