<svg xmlns="http://www.w3.org/2000/svg" width="24" height="24" viewBox="0 0 24 24">
  <path fill="#677078" d="M10,6.35 L10,4.26 C9.2,4.47 8.45,4.8 7.77,5.22 L9.23,6.68 C9.48,6.56 9.73,6.44 10,6.35 Z M2.86,5.41 L5.22,7.77 C4.45,8.99 4,10.44 4,12 C4,14.21 4.91,16.2 6.36,17.64 L4,20 L10,20 L10,14 L7.76,16.24 C6.68,15.15 6,13.66 6,12 C6,11 6.25,10.06 6.68,9.23 L14.76,17.31 C14.51,17.44 14.26,17.56 13.99,17.65 L13.99,19.74 C14.79,19.53 15.54,19.2 16.22,18.78 L18.58,21.14 L19.85,19.87 L4.14,4.14 L2.86,5.41 Z M20,4 L14,4 L14,10 L16.24,7.76 C17.32,8.85 18,10.34 18,12 C18,13 17.75,13.94 17.32,14.77 L18.78,16.23 C19.55,15.01 20,13.56 20,12 C20,9.79 19.09,7.8 17.64,6.36 L20,4 Z"/>
</svg>
