<svg xmlns="http://www.w3.org/2000/svg" width="24" height="24" viewBox="0 0 24 24">
  <path fill="#0071BB" fill-rule="evenodd" d="M10.0829549.0963373494L.0000416184971 1.71195181.0000416184971 14.3653494 10.0829549 15.9809639 10.0829549 12.8833253 10.0829549 11.7049157 10.0829549 8.49045783 10.0829549 7.79031325 10.0829549 4.37248193 10.0829549 3.1939759 10.0829549.0963373494zM2.95027283 10.9901205L2.95027283 4.35281928 6.62934798 3.98809639 6.62934798 5.33084337 4.38715145 5.4766747 4.38715145 7.01257831 6.47359075 6.96313253 6.47359075 8.29546988 4.38715145 8.27416867 4.38715145 9.8533494 6.77615723 9.97942169 6.77615723 11.3219759 2.95027283 10.9901205zM11.0342913 3.19398554L11.0342913 12.8834313 17.0998751 12.8834313C17.5962798 12.8834313 17.9987306 12.510612 17.9987306 12.0507566L17.9987306 4.02666024C17.9987306 3.56680482 17.5962798 3.19398554 17.0998751 3.19398554L11.0342913 3.19398554z" transform="translate(3 4)"/>
</svg>
