<svg xmlns="http://www.w3.org/2000/svg" width="24" height="24" viewBox="0 0 24 24">
  <path fill="#0077B5" fill-rule="evenodd" d="M19.6686174,3 C20.3570804,3 20.9248358,3.51095642 20.9931159,4.16536299 L21,4.29804808 L21,19.7019519 C21,20.3738518 20.4752735,20.9273879 19.8045883,20.9939553 L19.6686174,21.0006667 L4.32838253,21.0006667 C3.64148209,21.0006667 3.07499627,20.4891243 3.00686874,19.8346445 L3,19.7019519 L3,4.29804808 C3,3.62614819 3.52355455,3.07319802 4.19271996,3.00670386 L4.32838253,3 L19.6686174,3 Z M8.33853106,9.74824994 L5.66776547,9.74824994 L5.66776547,18.3385681 L8.33853106,18.3385681 L8.33853106,9.74824994 Z M15.1364495,9.53524205 C13.8377347,9.53524205 12.9667025,10.2472684 12.6103559,10.9229601 L12.6103559,10.9229601 L12.5736879,10.9229601 L12.5736879,9.74824994 L10.0129264,9.74824994 L10.0129264,18.3385681 L12.6816919,18.3385681 L12.6816919,14.0894107 C12.6816919,12.9690359 12.8936998,11.8829957 14.2830846,11.8829957 C15.652802,11.8829957 15.6704693,13.1643765 15.6704693,14.1607467 L15.6704693,18.3385681 L18.3392348,18.3385681 L18.3392348,13.6270603 C18.3392348,11.3139746 17.8402163,9.53524205 15.1364495,9.53524205 Z M7.00314826,5.47809178 C6.14744991,5.47809178 5.45575762,6.17178414 5.45575762,7.02681581 C5.45575762,7.88084744 6.14744991,8.5745398 7.00314826,8.5745398 C7.8565132,8.5745398 8.55020556,7.88084744 8.55020556,7.02681581 C8.55020556,6.17178414 7.8565132,5.47809178 7.00314826,5.47809178 Z"/>
</svg>
