<svg xmlns="http://www.w3.org/2000/svg" width="24" height="24" viewBox="0 0 24 24">
  <path fill="#677078" d="M18.06,22.99 L19.72,22.99 C20.56,22.99 21.25,22.35 21.35,21.53 L23,5.05 L18,5.05 L18,1 L16.03,1 L16.03,5.05 L11.06,5.05 L11.36,7.39 C13.07,7.86 14.67,8.71 15.63,9.65 C17.07,11.07 18.06,12.54 18.06,14.94 L18.06,22.99 L18.06,22.99 Z M1,21.99 L1,21 L16.03,21 L16.03,21.99 C16.03,22.54 15.58,22.99 15.02,22.99 L2.01,22.99 C1.45,22.99 1,22.54 1,21.99 Z M16.03,14.99 C16.03,6.99 1,6.99 1,14.99 L16.03,14.99 Z M1.02,17 L16.02,17 L16.02,19 L1.02,19 L1.02,17 Z"/>
</svg>
