<svg xmlns="http://www.w3.org/2000/svg" width="24" height="24" viewBox="0 0 24 24">
  <path fill="#63BF52" d="M11.99,2 C6.47,2 2,6.48 2,12 C2,17.52 6.47,22 11.99,22 C17.52,22 22,17.52 22,12 C22,6.48 17.52,2 11.99,2 Z M12,20 C7.58,20 4,16.42 4,12 C4,7.58 7.58,4 12,4 C16.42,4 20,7.58 20,12 C20,16.42 16.42,20 12,20 Z M13.97,15.47 C14.97,16.6 14.01,15.53 14.98,16.62 C14.12,17.17 13.11,17.5 12,17.5 C10.9,17.5 9.89,17.18 9.03,16.63 C9.18,16.46 9.92,15.62 10.04,15.48 C10.62,15.82 11.27,16 12,16 C12.73,16 13.38,15.82 13.97,15.47 Z M15.5,8 C16.3284271,8 17,8.67157288 17,9.5 C17,10.3284271 16.3284271,11 15.5,11 C14.6715729,11 14,10.3284271 14,9.5 C14,8.67157288 14.6715729,8 15.5,8 Z M8.5,8 C9.32842712,8 10,8.67157288 10,9.5 C10,10.3284271 9.32842712,11 8.5,11 C7.67157288,11 7,10.3284271 7,9.5 C7,8.67157288 7.67157288,8 8.5,8 Z"/>
</svg>
