<svg xmlns="http://www.w3.org/2000/svg" width="24" height="24" viewBox="0 0 24 24">
  <path fill="#677078" d="M19.04,4.55 L17.62,5.97 C16.07,4.74 14.12,4 12,4 C10.17,4 8.47,4.55 7.05,5.48 L8.51,6.94 C9.53,6.35 10.73,6 12,6 C15.87,6 19,9.13 19,13 C19,14.27 18.65,15.47 18.06,16.49 L19.51,17.94 C20.45,16.53 21,14.83 21,13 C21,10.88 20.26,8.93 19.03,7.39 L20.45,5.97 L19.04,4.55 L19.04,4.55 Z M15,1 L9,1 L9,3 L15,3 L15,1 Z M11,9.44 L13,11.44 L13,8 L11,8 L11,9.44 Z M3.02,4 L1.75,5.27 L4.5,8.03 C3.55,9.45 3,11.16 3,13 C3,17.97 7.02,22 12,22 C13.84,22 15.55,21.45 16.98,20.5 L19.48,23 L20.75,21.73 L13.04,14.02 L3.02,4 Z M12,20 C8.13,20 5,16.87 5,13 C5,11.72 5.35,10.52 5.95,9.48 L15.51,19.04 C14.48,19.65 13.28,20 12,20 L12,20 Z"/>
</svg>
